<svg xmlns="http://www.w3.org/2000/svg" xmlns:xlink="http://www.w3.org/1999/xlink" viewBox="0 0 300 300" xmlns:v="https://vecta.io/nano"><path d="M297.2 177c-6.5-14.8-19.2-11.8-27.6-28.6-8.2-16.3 1.1-24.3-3.4-45.8-.5-2.5-8.4-37.1-38.9-51.4-14.5-6.8-36.3-10-52.8-2-5.3 2.6-12.7 7-27.1 13.5-4 1.8-8.7 3.6-14.6 5.3-19.7 5.7-29.4 3.7-32 3.1-14.1-3.2-23.2-12.3-27.3-17-1-2.9-8-21.2-27.2-28.1-3.6-1.3-17.5-5.8-29 .5-14.6 7.7-21.5 29.7-14 52.6 7.2 19.2 7.9 34.6 7.1 45.4-1.8 25.6-13.4 40-7.6 62.7 2.5 9.6 6.9 16.9 10.2 21.5-.6 4.8 21.6 23.9 21.4 34.7-.1 5.1-3.6 6.4-3.7 10-.8 17.8 81.4 39.3 97.1 23.2 1.4-1.4 7.5-7.1 17-13.3 0 0 3.3-1.8 6.7-3.1 27.1-10.5 57-1.3 61.2.1 8.1 2.6 13 5.3 21.4 4.6 2.9-.3 13.5-1.2 17.4-8.1 3.2-5.7-.8-10.9 2.6-14.5 3.4-3.7 9.6-1.2 15.3-1.2 14.5 0 38.9-38.7 27.8-64.1z" fill="#f8fafc"/><path d="M96.7 241.4c.2.1 2.6 2.8 2.6 2.8l4.1-3.1s-3.5-2.6-5.2-3.1c-1.8-.4-1.5 3.4-1.5 3.4z" fill="#efc0a0"/><path d="M39.4 142.4h99v106.3h-99z" fill="#c9c9c9"/><path d="M35.8 138.3h106.8v23.6H35.8zm0 29.7h106.8v23.6H35.8z" fill="#8e8e8e"/><path d="M42.5 144.9h109.8v2.2H42.5zm0 29h109.8v2.2H42.5z" fill="#b2b2b2"/><path d="M35.8 198.8h106.8v23.6H35.8z" fill="#8e8e8e"/><path d="M42.5 204.9h109.8v2.2H42.5z" fill="#b2b2b2"/><path d="M35.8 229.7h106.8v23.6H35.8z" fill="#8e8e8e"/><path d="M42.5 235h109.8v2.2H42.5z" fill="#b2b2b2"/><path d="M112.2 81.1l2.7 22.2s.1 4.6-1.3 4.9c-1.5.2-6.5 2.1-7.6-3.5-.6-3.2-5.8-10-6.4-13-1.7-8.1-.4-14.7-.4-14.7l13 4.1z" fill="#efc0a0"/><g fill="#894820"><path d="M98.1 243.3l.1 7.4c0 1.3 1.4 4.2 2.7 3.8s4.5-10.2 4.5-11c0-.3-.9-1.6-2-3-2 2.1-5.3 2.8-5.3 2.8z"/><path d="M105 242.7c.3.4.4.7.4.9-.1.8-3.3 10.6-4.5 11-.5.2-1.1-.2-1.5-.9.5.9 1.2 1.5 1.8 1.3 1.3-.4 4.5-10.2 4.5-11 0-.2-.3-.7-.7-1.3z"/></g><path d="M34.9 84l.6 22.4s.2 6.4 1.7 6.4 6.8 1.1 7-4.6c.1-3.2 4.6-12.6 4.7-15.7.4-8.3-1.8-14.6-1.8-14.6L34.9 84z" fill="#efc0a0"/><path d="M78.9 49.5c.2.8-.1 3.7 3 1.8s8.8-6.3 7.6-19c-.5-5-1.1-6.5-1.9-6.7-1.1-.2-2.1 2.2-3.5 2-1.2-.2-1.6-2.1-2.2-3.8-1.7-5-2.7-7.7-4.2-8.3-3.6-1.3-13.3 8.6-11.4 16.1.4 1.7 1.4 2.9 2.6 4.5 4.1 5.2 8.5 5.1 9.1 8.9.3 1.9.6 3.6.9 4.5z" fill="#323857"/><path d="M85.5 78H58.9V59.7h23.8l2.8.4zM85 245v4.2l2.2 2s2.1 4.6-1 5.3c0 0-7 2.7-7.4-4.9s-1-8.6-1-8.6l7.2 2z" fill="#efc0a0"/><path d="M48.3 136.7l-.3 2.2c.6 14.9 5.7 56.5 7.1 66.9 1.5 11.3 43.7 38 43.7 38l7.4-3.7-35.8-35.4 3.2-45.7s2.9 86 5.2 89.3c0 0 5.4 2.9 6.3-.1s15-106 11.8-119.9c-11.9-3.1-48.6 8.4-48.6 8.4z" fill="#38364c"/><path d="M82.7 59.7c-.1.3-.2.7-.4 1.5-.8 4.9-5.1 8.6-10.3 8.6-5.7 0-10.3-4.5-10.4-10.1h0c-12.5-.2-16.7 3.9-23.1 6.9-5.1 7.3-4.3 26.8-3.7 26.9l14-.9.6-8.2v26.7c0 5.1-.4 19.9-1.3 25.7-.2 1.2 1.9 6.1 11.5 6.1 6.4 0 19.9-3.6 28.6-4.6 4.1-.5 8.4.4 8.4.4 1.1 0 2-1 1.9-2.2-.8-6.8-3.2-28.2-3-36.3.1-6.6 2.1-18.5 2.1-18.5s-.2 3.5.6 4.9l14.2-4.1c0-.4.4-7.1-2.2-13.2a14.79 14.79 0 0 0-11.7-8.6c-6.6-.7-15.8-1-15.8-1z" fill="#ffdc4a"/><path d="M72.2 67.4c4.3 0 6.4-3 8.9-7.7h0c-2.4 3.2-5.5 5.1-8.9 5.1s-6.5-1.9-8.9-5.1h0c2.6 4.7 4.7 7.7 8.9 7.7z" fill="#e2af8d"/><g fill="#efc0a0"><path d="M106.9 105.5s2.5 8.6 4.8 11.2 3.6 12.2 3.6 12.2l5.1-1.8s-1-20.6-7.1-26c-2.1-1.8-6.4 4.4-6.4 4.4z"/><ellipse cx="72.2" cy="42.7" rx="14" ry="22.1"/></g><path d="M60.9 49.5c-.2.8.1 3.7-3 1.8-.7-.4-2.7-1.5-4-3.4-3.1-4.4-6.6-18.4-2.5-20.5 2-1 4.1 1.5 5.9.2 1.9-1.3.5-4.5 1.7-7.5 1.9-4.8 8.9-6.7 13.1-7 9.1-.5 19.3 6 19.1 12.4-.1 3.2-2.8 7.9-6.9 9.2-.2.1-.3.1-.5.1-6.3 1.7-7.7-1-13 1.3-4.2 1.7-8.5 5.5-9.1 8.9-.2 1.9-.6 3.6-.8 4.5z" fill="#323857"/><path d="M62.8 94.2s3.8-1.5 4.9 0c1.1 1.4 2 7 1.6 7.7-.8 1.4-4.5 1.4-4.8 1.6s-3.2.6-3.4-1.8-1.8-9.2-1.7-9.6-.2-1.9.7-1.5c.9.3 1.8 1.1 1.8 1.9.1.7.9 1.7.9 1.7z" fill="#efc0a0"/><g fill="#894820"><path d="M85 248.3l2.2 2s2.1 4.6-1 5.3c0 0-7 2.7-7.4-4.9l-.1-2.3s1.8.6 3.5.6c2.6 0 2.8-.7 2.8-.7z"/><path d="M78.9 251.6c.4 7.6 7.4 4.9 7.4 4.9 1.5-.3 1.8-1.6 1.7-2.8-.1.9-.5 1.6-1.7 1.9 0 0-7 2.7-7.4-4.9v.9z"/></g><path d="M36.2 106.3s9.9-4.3 13.3-4c3.4.4 12-4.3 12-4.3l1.5 5.2s-17.2 11.3-25.2 9.6c-2.5-.6-1.6-6.5-1.6-6.5z" fill="#efc0a0"/><circle cx="177.2" cy="178.1" r="77.9" fill="#ce4e4e"/><circle cx="177.2" cy="178.1" r="72.6" fill="#fff"/><path d="M220.5 135.9c5.3 5.6 9.6 12.1 12.5 19.2 1.5 3.5 2.5 7.3 3.4 11 .2.9.3 1.9.5 2.9.1 1 .3 1.9.4 2.9l.2 2.9.1 1.4v1.4c.1 7.7-1.3 15.5-4 22.7s-6.9 14-12.1 19.7-11.6 10.4-18.6 13.8-14.6 5.5-22.4 6c-7.8.6-15.6-.3-23.1-2.6s-14.4-6.1-20.5-11-11.3-10.9-15.1-17.8c-3.9-6.8-6.4-14.4-7.5-22.1-1.1-7.8-.7-15.7 1.1-23.4 1.8-7.6 5.2-14.9 9.7-21.4s10.3-12 16.9-16.4c6.6-4.3 14-7.4 21.8-9 7.7-1.6 15.8-1.7 23.6-.4 7.8 1.4 15.3 4.3 21.9 8.7l-1.6 2.5c-6.6-3.6-13.6-6.3-20.9-7.6s-14.9-1.3-22.2.1-14.4 4.3-20.7 8.3-11.8 9.3-16.2 15.4-7.6 13-9.4 20.3-2.3 14.9-1.3 22.4 3.4 14.7 7 21.3 8.6 12.5 14.4 17.3 12.6 8.5 19.8 10.8 14.9 3.3 22.4 2.7c7.6-.5 15-2.4 21.9-5.7 6.9-3.2 13.1-7.8 18.3-13.4s9.4-12.1 12.1-19.2c2.8-7.1 4.2-14.7 4.3-22.4v-1.4l-.1-1.4-.2-2.9c-.1-1-.3-1.9-.4-2.8s-.3-1.9-.4-2.8c-.8-3.7-1.8-7.5-3.2-11-3-6.7-7.2-13.3-12.4-19zm-15.6-4.4l3.4-5.4 3.4-5.5 2.1 8.8z" fill="#00c18d"/><path d="M175.7 124.7h.8v9.1h-.8zm44.7 53h9.1v.8h-9.1zm-44.7 44.7h.8v9.1h-.8zm31.413-75.962l6.435-6.435.566.566-6.435 6.435z" fill="#323857"/><path d="M155.526 199.467l40.658-40.658.566.566-40.658 40.658z" fill="#dd5858"/><path d="M138.071 215.602l6.435-6.435.566.566-6.435 6.435zM122.7 177.7h9.1v.8h-9.1zm15.31-37.071l.566-.566 6.435 6.435-.566.566zm69.846 69.787l.566-.566 6.435 6.435-.566.566z" fill="#323857"/><path d="M145.9 170.7v-2.8c6.8-5 8.8-6.7 8.8-8.8 0-1.4-1.3-2.2-2.7-2.2-1.9 0-3.3.7-4.4 1.9l-2-2.3c1.6-1.9 4.1-2.7 6.4-2.7 3.5 0 6.3 2 6.3 5.3 0 2.8-2.3 5.3-6.6 8.4h6.7v3.1h-12.5zm22.3 0v-3.4h-7.9v-2.8l6.6-10.3h4.9v10h2.1v3.1h-2.1v3.4h-3.6zm0-13.5l-4.5 6.9h4.5v-6.9zm17.5 44.2l5.9-13.4h-8.3v-3.1h12.4v2.5l-6.2 14.1h-3.8z" fill="#444"/><path d="M200.3 80.1h-32.8c-1.8 0-3.2-1.4-3.2-3.2V44.2c0-1.8 1.4-3.2 3.2-3.2h32.8c1.8 0 3.2 1.4 3.2 3.2V77c0 1.7-1.4 3.1-3.2 3.1z" fill="#fff"/><path d="M203.5 47.6h-39.2v-3.4c0-1.8 1.4-3.2 3.2-3.2h32.8c1.8 0 3.2 1.4 3.2 3.2v3.4z" fill="#ce4e4e"/><g fill="#e2e2e2"><use xlink:href="#B"/><use xlink:href="#C"/><use xlink:href="#B" x="16.9"/><use xlink:href="#B" x="25.3"/><use xlink:href="#B" y="7.4"/><use xlink:href="#C" y="7.4"/><use xlink:href="#B" x="16.9" y="7.4"/><use xlink:href="#B" x="25.3" y="7.4"/><use xlink:href="#D"/><path d="M180.5 72.5H179c-.7 0-1.3-.6-1.3-1.3v-1.5c0-.7.6-1.3 1.3-1.3h1.5c.7 0 1.3.6 1.3 1.3v1.5c-.1.8-.6 1.3-1.3 1.3z"/><use xlink:href="#D" x="16.9"/><use xlink:href="#D" x="25.3"/></g><path d="M113.6 132.7s1.8 3.6 3.6 3.4 6.3-3.8 6.4-4.5c.3-1.6-2.3-4.1-2.5-4.5-.1-.4-1.9-2.6-3.7-1-1.7 1.6-3.7 2.2-4.4 3.4-.8 1.5.6 3.2.6 3.2z" fill="#efc0a0"/><path d="M217.4 188.8l-33.8 58.6c-1.8 3.2.5 7.2 4.2 7.2h67.7c3.7 0 6-4 4.2-7.2l-33.8-58.6c-2-3.2-6.6-3.2-8.5 0z" fill="#ffdc4a"/><path d="M255.3 252.1h-67.5c-1.2 0-1.8-.8-2-1.2s-.6-1.3 0-2.3l33.7-58.4c.6-1 1.6-1.2 2-1.2a2.21 2.21 0 0 1 2 1.2l33.7 58.4c.6 1.1.2 2 0 2.3-.1.3-.7 1.2-1.9 1.2zM221.6 190a1.18 1.18 0 0 0-1.1.7l-33.7 58.4c-.3.6-.1 1.1 0 1.3s.5.7 1.1.7h67.5c.7 0 1-.4 1.1-.7.1-.2.3-.7 0-1.3l-33.7-58.4c-.4-.6-.9-.7-1.2-.7z" fill="#ffd300"/><path d="M218.3 212.9c0-.2.1-.3.3-.3h6c.2 0 .4.1.4.3l-.7 19.5c0 .2-.2.5-.4.5h-4.3c-.1 0-.4-.2-.4-.4l-.9-19.6zm5.8 25.9c0 .2-.2.4-.4.4h-4.3c-.2 0-.4-.2-.4-.4v-4.4c0-.2.2-.4.4-.4h4.4c.2 0 .4.1.4.3v4.5z" fill="#444"/><path d="M267.6 237.1c0-2 1-3.8 2.5-4.9 1.1-.8 1.6-2.2 1-3.4-.5-1.2-1.8-2-3-1.7-1.9.4-3.9-.2-5.4-1.6-1.5-1.5-2-3.5-1.6-5.4.2-1.3-.5-2.5-1.7-3h-.1c-1.2-.5-2.7-.1-3.4 1-1.1 1.5-2.8 2.5-4.9 2.5-2 0-3.8-1-4.9-2.5-.8-1.1-2.2-1.6-3.4-1h-.1c-1.2.5-2 1.8-1.7 3 .4 1.9-.2 3.9-1.6 5.4-1.5 1.5-3.5 2-5.4 1.6-1.3-.2-2.5.5-3 1.7v.1c-.5 1.3-.1 2.7 1 3.5 1.5 1.1 2.5 2.8 2.5 4.9 0 2-1 3.8-2.5 4.9-1.1.8-1.6 2.2-1 3.4.5 1.2 1.8 2 3 1.7 1.9-.4 3.9.2 5.4 1.6 1.5 1.5 2 3.5 1.6 5.4-.2 1.3.5 2.5 1.7 3h.1c1.2.5 2.7.1 3.4-1 1.1-1.5 2.8-2.5 4.9-2.5 2 0 3.8 1 4.9 2.5.8 1.1 2.2 1.6 3.4 1 1.2-.5 2-1.8 1.7-3-.4-1.9.2-3.9 1.6-5.4 1.5-1.5 3.5-2 5.4-1.6 1.3.2 2.5-.5 3-1.7v-.1c.5-1.2.1-2.7-1-3.4-1.4-1.2-2.4-2.9-2.4-5zm-11.4 3.2c-2.4 3.8-7.8 3.8-10.2 0-1.2-1.9-1.2-4.4 0-6.3 2.4-3.8 7.8-3.8 10.2 0 1.2 1.9 1.2 4.4 0 6.3z" fill="#5fa3e0"/><path d="M37.2 232.7c1.4-4.2.3-8.9-2-12.6s-5.8-6.6-9.5-9c-2.6-1.7-5.5-3.2-7.9-5.2s-4.5-4.7-5-7.8C9.9 203.2 8.9 209 8 214.8c-.5 3.1-1 6.3-.6 9.5.9 6.2 6 11.5 12.1 13.2s12.9.1 17.8-3.8m23.1-16.6c-6.2 3.1-10 10.2-10.4 17.1.4.2-.3-.4 0 0 5.7-4.2 12.5-7.6 19-10.7 6.4-3.1 13.7-4.9 20.7-4-3.3-.4-5.7-1.5-8.6-3.1 0 .1-9.9-4.7-20.7.7z" fill="#00c18d"/><path d="M64.5 258.7l-6.1 19.4c-.3 1-1.3 1.7-2.4 1.7H40c-1.1 0-2-.7-2.4-1.7l-6.1-19.4h33z" fill="#e2e3e9"/><g fill="#098c4a"><path d="M47.1 261.6c2-4.8 2.2-10.1.7-15-.7-2.4-1.8-4.7-3.4-6.7-1.5-2-3.4-3.7-5.5-5.1-4.1-2.9-9-4.9-13.3-7.8-2.1-1.5-4.1-3.2-5.8-5.2-1.6-2-2.8-4.4-3.2-7 .6 2.5 1.9 4.8 3.6 6.7s3.7 3.5 5.8 4.9c4.3 2.7 9.1 4.7 13.4 7.7 4.3 2.9 7.7 7.4 9 12.5.7 2.5.9 5.2.7 7.8-.1 2.4-.8 4.9-2 7.2z"/><path d="M49 254.2c-.7-4.2-1.4-8.4-1.2-12.7.1-2.1.6-4.3 1.4-6.3s1.8-3.9 3-5.7 2.9-3.2 4.6-4.6c1.7-1.3 3.5-2.5 5.4-3.5s3.9-1.8 5.9-2.5c2-.6 4.1-1.1 6.2-1.3-4.2.9-8.1 2.4-11.8 4.5-1.8 1-3.6 2.2-5.2 3.5s-3.2 2.7-4.4 4.4-2.2 3.6-3 5.5-1.3 3.9-1.5 6-.1 4.2 0 6.3c.3 2.2.5 4.3.6 6.4z"/></g><path d="M41.4 259.6c3.6 0 8.6 2.6 9.7 5.2 1.6 3.7-1.6 7.8-.4 9.6 2.3 3.5 3.4 2.1 5.4 5.5l-15.8.1c-1.8-.1-2.4-1-2.8-2.1l-4.4-14.1c1.1-.6 4.7-4.3 8.3-4.2z" opacity=".54" fill="#d1d1d3"/><defs ><path id="B" d="M172 57.7h-1.5c-.7 0-1.3-.6-1.3-1.3v-1.5c0-.7.6-1.3 1.3-1.3h1.5c.7 0 1.3.6 1.3 1.3v1.5c0 .7-.6 1.3-1.3 1.3z"/><path id="C" d="M180.5 57.7H179c-.7 0-1.3-.6-1.3-1.3v-1.5c0-.7.6-1.3 1.3-1.3h1.5c.7 0 1.3.6 1.3 1.3v1.5c-.1.7-.6 1.3-1.3 1.3z"/><path id="D" d="M172 72.5h-1.5c-.7 0-1.3-.6-1.3-1.3v-1.5c0-.7.6-1.3 1.3-1.3h1.5c.7 0 1.3.6 1.3 1.3v1.5c0 .8-.6 1.3-1.3 1.3z"/></defs></svg>